<svg width="158" height="148" viewBox="0 0 158 148" fill="none" xmlns="http://www.w3.org/2000/svg">
<g filter="url(#filter0_d_5_68)">
<g clip-path="url(#clip0_5_68)">
<path d="M4.00994 99.8007C4.02058 99.8558 4.03735 99.9094 4.05994 99.9607C4.06994 99.9907 4.07993 100.031 4.08993 100.061L15.4983 119.818L15.5283 119.848C15.5483 119.878 15.5682 119.908 15.5982 119.948C15.6368 119.99 15.6805 120.027 15.7282 120.058C15.7582 120.078 15.7782 120.108 15.8082 120.128C15.8199 120.136 15.8341 120.139 15.8482 120.138C15.9614 120.201 16.0885 120.235 16.2182 120.238H61.3515L72.5199 139.575L72.5499 139.605C72.5699 139.635 72.5899 139.665 72.6199 139.705C72.6585 139.747 72.7021 139.784 72.7499 139.815C72.7799 139.835 72.7998 139.865 72.8298 139.885C72.8416 139.893 72.8557 139.896 72.8698 139.895C72.983 139.958 73.1101 139.992 73.2398 139.995H141.68C141.813 139.993 141.943 139.958 142.06 139.895L142.15 139.835C142.235 139.778 142.309 139.707 142.37 139.625C142.38 139.605 142.41 139.595 142.42 139.575L153.828 119.818C153.838 119.798 153.838 119.788 153.848 119.768C153.866 119.736 153.879 119.703 153.888 119.668C153.898 119.628 153.908 119.598 153.918 119.558C153.926 119.522 153.93 119.485 153.928 119.448C153.928 119.428 153.938 119.418 153.938 119.398C153.938 119.378 153.928 119.368 153.928 119.348C153.928 119.308 153.918 119.278 153.918 119.238C153.918 119.198 153.898 119.168 153.888 119.128C153.876 119.094 153.863 119.061 153.848 119.028C153.838 119.008 153.838 118.998 153.828 118.978L131.261 79.8937L142.42 60.5565C142.43 60.5365 142.43 60.5265 142.44 60.5065C142.457 60.475 142.471 60.4414 142.48 60.4065C142.49 60.3665 142.5 60.3365 142.51 60.2965C142.518 60.2605 142.521 60.2235 142.52 60.1865C142.52 60.1665 142.53 60.1565 142.53 60.1365C142.53 60.1166 142.52 60.1066 142.52 60.0866C142.52 60.0466 142.51 60.0166 142.51 59.9766C142.51 59.9366 142.49 59.9066 142.48 59.8666C142.468 59.8326 142.455 59.7992 142.44 59.7666C142.43 59.7466 142.43 59.7366 142.42 59.7166L108.215 0.435308C108.195 0.405312 108.165 0.385315 108.145 0.35532C108.11 0.309945 108.074 0.266548 108.035 0.225339C107.994 0.192006 107.95 0.161919 107.905 0.135352C107.861 0.106117 107.814 0.0825943 107.765 0.0653622C107.706 0.0462327 107.646 0.0328384 107.585 0.0253681C107.555 0.0253681 107.525 0.00537109 107.485 0.00537109H84.6681C84.6481 0.00537109 84.6381 0.0153696 84.6181 0.0153696C84.5781 0.0153696 84.5481 0.0253681 84.5081 0.0253681L84.3882 0.0553637C84.3582 0.0653622 84.3182 0.0853594 84.2882 0.0953579C84.2582 0.105356 84.2582 0.105356 84.2382 0.115355C84.2268 0.127705 84.2132 0.137871 84.1982 0.145351C84.1658 0.1655 84.1357 0.188956 84.1082 0.21534C84.0791 0.239424 84.0523 0.266206 84.0282 0.295329C84.0082 0.325324 83.9782 0.35532 83.9582 0.385315C83.9459 0.396709 83.9357 0.410263 83.9282 0.425309L61.3615 39.5196H39.0448C39.0248 39.5196 39.0148 39.5296 38.9948 39.5296C38.9548 39.5296 38.9248 39.5396 38.8848 39.5396C38.8448 39.5396 38.8048 39.5596 38.7748 39.5696C38.7408 39.5812 38.7075 39.5945 38.6749 39.6096C38.6549 39.6196 38.6449 39.6196 38.6249 39.6296C38.6049 39.6396 38.6049 39.6496 38.5849 39.6596C38.5525 39.6797 38.5224 39.7032 38.4949 39.7295C38.4658 39.7536 38.439 39.7804 38.4149 39.8095C38.3949 39.8395 38.3649 39.8695 38.3449 39.8995C38.3326 39.9109 38.3224 39.9245 38.3149 39.9395L4.09993 99.2208C4.08539 99.2526 4.0753 99.2863 4.06994 99.3208C4.04875 99.3726 4.03202 99.4261 4.01994 99.4808C4.00407 99.5325 3.99731 99.5867 3.99995 99.6408C3.99829 99.6943 4.00164 99.7478 4.00994 99.8007ZM106.995 1.70512L140.24 59.2867H119.383L86.1279 1.70512H106.995ZM118.403 98.8009H97.5362L119.373 60.9664H140.24L118.403 98.8009ZM84.6681 2.545L117.913 60.1265L96.0764 97.961L85.648 79.8837L96.8163 60.5465C96.8263 60.5265 96.8263 60.5165 96.8363 60.4965C96.8539 60.465 96.8673 60.4314 96.8763 60.3965C96.8863 60.3565 96.8963 60.3265 96.9063 60.2865C96.9146 60.2505 96.918 60.2135 96.9163 60.1765C96.9163 60.1565 96.9263 60.1465 96.9263 60.1265C96.9263 60.1066 96.9163 60.0966 96.9163 60.0766C96.9163 60.0366 96.9063 60.0066 96.9063 59.9666C96.9063 59.9266 96.8863 59.8966 96.8763 59.8566C96.8647 59.8226 96.8514 59.7892 96.8363 59.7566C96.8263 59.7366 96.8263 59.7266 96.8163 59.7066L85.398 39.9495C85.378 39.9195 85.348 39.8995 85.328 39.8695C85.2938 39.8241 85.2571 39.7808 85.218 39.7395C85.1771 39.7062 85.1336 39.6761 85.088 39.6496C85.0435 39.6223 84.9966 39.5988 84.9481 39.5796C84.8935 39.5599 84.836 39.5498 84.7781 39.5496C84.7481 39.5496 84.7081 39.5296 84.6781 39.5296H63.3212L84.6681 2.545ZM61.8615 41.2193H84.1882L94.6266 59.2867H50.9431L40.5046 41.2193H61.8615ZM39.0448 42.0592L49.4733 60.1265L16.2282 117.708L5.79968 99.6408L39.0448 42.0592ZM17.6979 118.548L50.9431 60.9664H94.6266L84.1882 79.0438H61.8615C61.8415 79.0438 61.8315 79.0538 61.8115 79.0538C61.7715 79.0538 61.7415 79.0638 61.7015 79.0638L61.5815 79.0938C61.5515 79.1038 61.5115 79.1238 61.4815 79.1338C61.4515 79.1438 61.4515 79.1438 61.4315 79.1538C61.4201 79.1661 61.4066 79.1763 61.3915 79.1838C61.3592 79.2039 61.329 79.2274 61.3015 79.2537C61.2724 79.2778 61.2456 79.3046 61.2215 79.3337C61.2015 79.3637 61.1716 79.3937 61.1516 79.4237C61.1416 79.4337 61.1216 79.4437 61.1216 79.4637L49.7132 99.2208C49.6987 99.2526 49.6886 99.2863 49.6832 99.3208C49.6621 99.3726 49.6453 99.4261 49.6332 99.4808C49.6246 99.5336 49.6213 99.5872 49.6233 99.6408C49.6216 99.6943 49.6249 99.7478 49.6332 99.8007C49.6439 99.8558 49.6606 99.9094 49.6832 99.9607C49.6932 99.9907 49.7032 100.031 49.7132 100.061L60.3917 118.548H17.6979ZM141.22 138.305H74.7296L85.158 120.238H151.648L141.22 138.305ZM73.2698 137.465L51.433 99.6408L61.8715 81.5634L83.7083 119.388L73.2698 137.465ZM151.648 118.548H85.158L63.3212 80.7235H84.1882L95.3565 100.061L95.3865 100.091C95.4064 100.126 95.4299 100.16 95.4565 100.191C95.4951 100.233 95.5388 100.27 95.5865 100.301C95.6165 100.321 95.6365 100.351 95.6665 100.371C95.6782 100.379 95.6924 100.382 95.7065 100.381C95.8197 100.444 95.9468 100.478 96.0764 100.481H118.893C119.026 100.478 119.156 100.444 119.273 100.381L119.363 100.321C119.448 100.264 119.522 100.193 119.583 100.111C119.593 100.091 119.623 100.081 119.633 100.061L130.311 81.5634L151.648 118.548Z" fill="white"/>
</g>
</g>
<defs>
<filter id="filter0_d_5_68" x="0" y="0" width="157.938" height="148" filterUnits="userSpaceOnUse" color-interpolation-filters="sRGB">
<feFlood flood-opacity="0" result="BackgroundImageFix"/>
<feColorMatrix in="SourceAlpha" type="matrix" values="0 0 0 0 0 0 0 0 0 0 0 0 0 0 0 0 0 0 127 0" result="hardAlpha"/>
<feOffset dy="4"/>
<feGaussianBlur stdDeviation="2"/>
<feComposite in2="hardAlpha" operator="out"/>
<feColorMatrix type="matrix" values="0 0 0 0 0 0 0 0 0 0 0 0 0 0 0 0 0 0 0.25 0"/>
<feBlend mode="normal" in2="BackgroundImageFix" result="effect1_dropShadow_5_68"/>
<feBlend mode="normal" in="SourceGraphic" in2="effect1_dropShadow_5_68" result="shape"/>
</filter>
<clipPath id="clip0_5_68">
<rect width="149.938" height="140" fill="white" transform="translate(4)"/>
</clipPath>
</defs>
</svg>
