<svg  viewBox="0 0 19 21" fill="none" xmlns="http://www.w3.org/2000/svg">
<path d="M18.375 8.61328V5.04492C18.334 5.04492 18.334 5.04492 18.334 5.04492C17.3496 5.04492 16.4062 4.75781 15.627 4.22461C14.4785 3.48633 13.6582 2.29688 13.4121 0.943359C13.3301 0.65625 13.3301 0.369141 13.3301 0.0820312C13.3301 0.0410156 13.3301 0.0410156 13.3301 0H9.7207V14.3555C9.7207 16.0371 8.32617 17.4316 6.64453 17.4316C4.96289 17.4316 3.56836 16.0371 3.56836 14.3555C3.56836 12.6738 4.96289 11.2793 6.64453 11.2793C6.97266 11.2793 7.25977 11.3203 7.58789 11.4434V7.75195C7.25977 7.71094 6.97266 7.66992 6.64453 7.66992C2.95312 7.66992 0 10.6641 0 14.3555C0 18.0469 2.95312 21 6.64453 21C10.3359 21 13.3301 18.0469 13.3301 14.3555V7.01367C14.7246 8.03906 16.4473 8.61328 18.334 8.61328H18.375Z" fill="white"/>
</svg>
